<svg width="181" height="182" viewBox="0 0 181 182" fill="none" xmlns="http://www.w3.org/2000/svg">
<path d="M139.286 97.4106C150.058 81.6528 154.531 64.0674 143.046 47.4667C134.374 34.9855 118.357 35.1652 104.488 38.8751C103.516 36.6088 101.892 34.6825 99.8222 33.341C86.6605 24.6989 67.054 35.2253 55.8035 42.6173C47.9314 47.7509 41.2219 54.4765 36.107 62.3608C35.3577 63.5211 37.2349 64.9097 38.0697 63.7817C47.4863 51.5976 61.34 43.2465 75.7262 38.2366C81.9544 36.0689 89.7696 34.3452 95.9656 37.4392C97.316 38.1032 98.4065 39.1985 99.0647 40.5517C96.7636 41.3353 94.5742 42.193 92.5296 43.0734C75.7183 50.3287 53.815 62.2921 46.6233 80.1601C41.4213 93.0673 52.0861 108.063 66.173 103.798C80.2599 99.532 89.9865 83.7015 97.0371 72.0223C100.62 66.0797 105.851 55.0981 105.839 45.883C124.758 38.7728 142.726 40.2688 145.904 65.0265C147.908 80.6175 134.757 96.6512 125.641 107.726C115.885 119.484 105.079 130.465 94.6835 141.659C94.2425 142.118 94.0017 142.733 94.0143 143.369C94.0268 144.005 94.2916 144.611 94.7504 145.052C95.2092 145.493 95.8244 145.734 96.4607 145.721C97.097 145.709 97.7022 145.444 98.1433 144.985C112.771 130.288 127.566 114.553 139.286 97.4106V97.4106ZM94.1281 63.4837C89.8075 72.0289 81.5391 80.0409 74.6491 86.5154C70.8919 90.06 65.9719 94.4506 60.5369 94.6679C50.2604 95.074 58.684 79.0061 61.3056 75.9675C68.4809 67.6037 83.9589 55.5548 99.7696 48.3361C98.7809 54.1427 95.6556 60.4751 94.1281 63.4837V63.4837Z" fill="#6B6B82"/>
<path d="M113.001 153.577C113.249 153.128 113.404 152.633 113.458 152.123C113.512 151.613 113.464 151.098 113.316 150.606C113.168 150.115 112.923 149.659 112.596 149.263C112.269 148.868 111.867 148.542 111.412 148.305C105.572 146.018 99.886 149.457 94.247 151.375C89.6321 152.993 84.8994 154.252 80.0908 155.141C82.7286 147.325 85.5787 139.513 87.126 131.481C87.9885 127.017 81.4293 124.007 79.4049 128.502C74.844 138.63 71.3392 149.391 67.8471 159.931C66.8139 163.048 69.8149 166.35 72.9098 166.229C80.4665 165.82 87.9336 164.394 95.1094 161.99C101.037 160.066 109.305 158.928 113.001 153.577V153.577Z" fill="#6B6B82"/>
</svg>
