<svg width="112" height="72" viewBox="0 0 112 72" fill="none" xmlns="http://www.w3.org/2000/svg">
<path d="M68.2306 70.5677L43.0451 70.7679C41.8082 70.7679 40.8057 69.7654 40.8057 68.5286L40.5866 43.124C40.5866 41.8871 41.5891 40.8846 42.826 40.8846L44.2267 40.3081H69.0833C70.3202 40.3081 71.3227 41.3106 71.3227 42.5475V67.4041L70.47 68.3284C70.47 69.565 69.4674 70.5677 68.2306 70.5677V70.5677Z" fill="#6B6B82"/>
<path d="M71.323 67.4042V69.4197C71.323 70.6559 70.3198 71.6591 69.0836 71.6591H42.2115C40.9753 71.6591 39.9721 70.6559 39.9721 69.4197V42.5474C39.9721 41.3112 40.9753 40.308 42.2115 40.308H44.227V66.2843C44.227 66.9023 44.7287 67.404 45.3467 67.404H71.323V67.4042Z" fill="#5B5B72"/>
<path d="M28.2585 70.5677L3.07324 70.7677C1.83638 70.7677 0.833858 69.7652 0.833858 68.5284L0.614746 43.124C0.614746 41.8871 1.61727 40.8846 2.85412 40.8846L4.25488 40.3081H29.1115C30.3483 40.3081 31.3509 41.3106 31.3509 42.5475V67.4041L30.4981 68.3284C30.4979 69.565 29.4954 70.5677 28.2585 70.5677Z" fill="#6B6B82"/>
<path d="M31.3506 67.4042V69.4197C31.3506 70.6559 30.3475 71.6591 29.1113 71.6591H2.23938C1.00318 71.6588 0 70.6557 0 69.4195V42.5474C0 41.3112 1.00318 40.308 2.23938 40.308H4.25486V66.2843C4.25486 66.9023 4.75656 67.404 5.37455 67.404H31.3506V67.4042Z" fill="#5B5B72"/>
<path d="M108.203 70.5677L83.0176 70.7679C81.7808 70.7679 80.7783 69.7654 80.7783 68.5286L80.5591 43.124C80.5591 41.8871 81.5617 40.8846 82.7985 40.8846L84.1993 40.3081H109.056C110.293 40.3081 111.295 41.3106 111.295 42.5475V67.4041L110.443 68.3284C110.442 69.565 109.44 70.5677 108.203 70.5677V70.5677Z" fill="#6B6B82"/>
<path d="M111.295 67.4042V69.4197C111.295 70.6559 110.292 71.6591 109.056 71.6591H82.1836C80.9474 71.6591 79.9442 70.6559 79.9442 69.4197V42.5474C79.9442 41.3112 80.9474 40.308 82.1836 40.308H84.1991V66.2843C84.1991 66.9023 84.7008 67.404 85.3188 67.404H111.295V67.4042Z" fill="#5B5B72"/>
<path d="M47.5886 56.3374L54.6487 64.182C55.1823 64.775 56.1122 64.775 56.6461 64.182L63.7062 56.3374C64.4844 55.4727 63.8707 54.095 62.7075 54.095H59.0063V48.0116C59.0063 47.6406 58.7055 47.3397 58.3344 47.3397H52.9601C52.589 47.3397 52.2882 47.6406 52.2882 48.0116V54.095H48.587C47.424 54.095 46.8104 55.473 47.5886 56.3374V56.3374Z" fill="#F6F2FC"/>
<path d="M95.9737 64.0423L103.818 56.9822C104.411 56.4486 104.411 55.5186 103.818 54.9848L95.9737 47.9247C95.109 47.1465 93.7313 47.7602 93.7313 48.9233V52.6245H87.6479C87.2768 52.6245 86.976 52.9254 86.976 53.2964V58.6708C86.976 59.0418 87.2768 59.3427 87.6479 59.3427H93.7313V63.0439C93.7313 64.2068 95.1092 64.8205 95.9737 64.0423Z" fill="#F6F2FC"/>
<path d="M15.3213 47.9247L7.47673 54.9848C6.88373 55.5184 6.88373 56.4483 7.47673 56.9822L15.3213 64.0423C16.186 64.8205 17.5637 64.2068 17.5637 63.0437V59.3425H23.6471C24.0182 59.3425 24.319 59.0416 24.319 58.6706V53.2962C24.319 52.9252 24.0182 52.6243 23.6471 52.6243H17.5637V48.9231C17.5637 47.7602 16.1858 47.1465 15.3213 47.9247Z" fill="#F6F2FC"/>
<path d="M68.2306 30.2596L43.0451 30.4598C41.8082 30.4598 40.8057 29.4573 40.8057 28.2205L40.5866 2.81585C40.5866 1.579 41.5891 0.576474 42.826 0.576474L44.2267 0H69.0833C70.3202 0 71.3227 1.00253 71.3227 2.23938V27.096L70.47 28.0203C70.47 29.2571 69.4674 30.2596 68.2306 30.2596V30.2596Z" fill="#6B6B82"/>
<path d="M71.323 27.096V29.1115C71.323 30.3477 70.3198 31.3509 69.0836 31.3509H42.2115C40.9753 31.3509 39.9721 30.3477 39.9721 29.1115V2.23938C39.9721 1.00318 40.9753 0 42.2115 0H44.227V25.9763C44.227 26.5943 44.7287 27.096 45.3467 27.096H71.323Z" fill="#5B5B72"/>
<path d="M63.7064 15.3213L56.6463 7.47673C56.1127 6.88373 55.1828 6.88373 54.6489 7.47673L47.5888 15.3213C46.8106 16.186 47.4243 17.5637 48.5874 17.5637H51.8406C52.088 17.5637 52.2884 17.7641 52.2884 18.0115V23.6469C52.2884 24.0179 52.5893 24.3188 52.9603 24.3188H58.3347C58.7057 24.3188 59.0066 24.0179 59.0066 23.6469V18.0115C59.0066 17.7641 59.207 17.5637 59.4544 17.5637H62.7076C63.8709 17.5637 64.4846 16.1858 63.7064 15.3213V15.3213Z" fill="#F6F2FC"/>
</svg>
