<svg width="800" height="800" viewBox="0 0 800 800" fill="none" xmlns="http://www.w3.org/2000/svg">
<path d="M275.6 39.6C275.6 26.4 286.4 15.6 299.6 15.6C312.8 15.6 323.6 26.4 323.6 39.6C323.6 52.8 312.8 63.6 299.6 63.6C286.4 64 275.6 53.2 275.6 39.6ZM206.8 104C220 104 230.8 93.2 230.8 80C230.8 66.8 220 56 206.8 56C193.6 56 182.8 66.8 182.8 80C182.8 93.2 193.6 104 206.8 104ZM400 1.99997C386.8 1.99997 376 12.8 376 26C376 39.2 386.8 50 400 50C574 50 718 173.6 745.2 341.6L555.6 222.4C560 229.6 562.4 238 562.4 246.8C562.4 259.2 558.4 270.8 550.4 280C541.2 291.2 528 297.2 512.8 297.2C507.2 297.2 502 296.4 496.8 294.4C493.2 293.2 490 291.2 486.4 289.2C484 287.6 481.2 285.6 478.4 283.6C478 283.2 477.6 282.8 476.8 282.4C466.4 273.2 455.2 266.8 442 262.4C427.6 258 412 255.6 394.8 255.6C376.4 255.6 359.2 259.2 342.8 266.8C326 274.4 310.8 285.2 298 298.4C285.2 311.6 274.8 327.2 267.6 344.4C260.4 361.6 256.8 379.2 256.8 398C256.8 417.6 260.4 436.4 267.6 453.6C274.8 471.2 285.2 486.8 298 499.6C310.8 512.8 325.6 523.2 342 530.4C358.4 537.6 376 541.2 394.8 541.2C411.2 541.2 426.8 538.8 441.2 533.6C448 531.2 454.8 528 461.2 524.4V465.6H408C394.8 465.6 382.8 460.8 373.6 452C364 442.8 358.4 430.4 358.4 416.8C358.4 403.2 364 390.8 374.4 381.6C383.6 373.6 395.2 369.2 408 369.2H510.8C528.4 369.2 539.6 376.8 546.4 383.2C555.6 392.4 560.4 404.8 560.4 418.4V550.4C560.4 554.8 560 558.8 559.2 562.8C557.6 571.2 553.2 578.8 546.8 585.2C525.6 606.4 500.8 620.8 473.2 628.8C448 636 421.6 639.6 394.8 639.6C362.4 639.6 331.2 633.2 302.8 620.4C300.4 619.2 297.6 618 295.2 616.8L494.8 734.8C464.8 743.2 432.8 748 400 748C207.2 748 50.3999 591.2 50.3999 398.4C50.3999 308.8 84.3999 223.6 145.6 158.4C154.8 148.8 154.4 133.6 144.8 124.4C135.2 115.2 120 115.6 110.8 125.2C40.3999 201.2 1.99994 298 1.99994 400C1.99994 619.6 180.4 798 400 798C619.6 798 798 619.6 798 400C798 168 618.8 1.99997 400 1.99997Z" fill="white"/>
</svg>
