<svg width="29" height="33" viewBox="0 0 29 33" fill="none" xmlns="http://www.w3.org/2000/svg">
<path d="M2.63829 28.9107L0 0.109524H29L26.3582 28.9061L14.4824 32.1095L2.63829 28.9107Z" fill="#1572B6"/>
<path d="M14.5 29.6615L24.097 27.073L26.3547 2.46495H14.5V29.6615Z" fill="#33A9DC"/>
<path d="M14.5 12.8992H19.3044L19.6356 9.2821H14.5V5.74953H23.6036L23.5167 6.69696L22.6251 16.4318H14.5V12.8992V12.8992Z" fill="white"/>
<path d="M14.5223 22.073L14.5059 22.0775L10.4627 21.0147L10.2043 18.1975H6.5593L7.06792 23.7438L14.5047 25.753L14.5223 25.7484V22.073V22.073Z" fill="#EBEBEB"/>
<path d="M18.9954 16.2821L18.5584 21.0124L14.5094 22.0752V25.7507L21.952 23.7438L22.0072 23.1472L22.638 16.2821H18.9954V16.2821Z" fill="white"/>
<path d="M14.5129 5.74953V9.2821H5.74291L5.67008 8.48781L5.50445 6.69696L5.41753 5.74953H14.5129V5.74953Z" fill="#EBEBEB"/>
<path d="M14.5 12.8992V16.4318H10.5073L10.4345 15.6375L10.27 13.8467L10.1831 12.8992H14.5V12.8992Z" fill="#EBEBEB"/>
</svg>
