<svg width="33" height="7" viewBox="0 0 33 7" fill="none" xmlns="http://www.w3.org/2000/svg">
<path d="M10.2351 7V0.136933H10.6267V1.2165C10.6729 1.16863 10.7156 1.11778 10.7545 1.06432C11.0816 0.419258 11.7715 0.0121496 12.5246 0.0201906C13.4175 -0.00512343 14.1431 0.309068 14.5695 1.06432C14.8408 1.53351 14.9902 2.0576 15.005 2.59283C15.0198 3.12806 14.8997 3.65889 14.6547 4.14101C14.2575 4.98739 13.2762 5.4082 12.2257 5.25363C11.8988 5.22722 11.5841 5.12338 11.3102 4.9516C11.0364 4.77983 10.8121 4.54559 10.658 4.27026V6.9997L10.2351 7ZM10.6267 2.56469L10.7144 3.37057C10.8692 4.28783 11.4397 4.82985 12.3354 4.9317C12.756 4.99744 13.1876 4.92248 13.5566 4.71959C13.9256 4.5167 14.2092 4.19845 14.359 3.81908C14.7074 3.02987 14.6817 2.13644 14.29 1.3657C14.1302 1.02563 13.8582 0.744253 13.5152 0.564103C13.1723 0.383953 12.7769 0.314817 12.389 0.367141C12.0248 0.392325 11.6779 0.524692 11.3965 0.745857C11.1151 0.967023 10.9132 1.26601 10.8187 1.60127C10.7353 1.91854 10.6712 2.24012 10.6267 2.56439V2.56469ZM23.0012 3.49744C22.9418 3.98066 22.6998 4.42693 22.3202 4.75326C21.9407 5.07958 21.4493 5.26375 20.9376 5.2715C19.2953 5.35012 18.5246 4.31344 18.4021 3.11713C18.3169 2.46748 18.4278 1.80819 18.7219 1.2162C18.9266 0.810103 19.262 0.476497 19.6795 0.263713C20.097 0.0509293 20.575 -0.0299825 21.0441 0.0326986C21.49 0.0687319 21.9128 0.237173 22.2525 0.514185C22.5922 0.791196 22.8317 1.16275 22.937 1.57626C23.0204 1.95294 23.0818 2.33373 23.1209 2.71687H18.8078C18.7279 3.8015 19.341 4.6735 20.2101 4.88375C21.2925 5.13689 22.2177 4.69107 22.5535 3.71276C22.6281 3.4617 22.7641 3.42626 23.0041 3.49744H23.0012ZM18.8046 2.36963H22.6626C22.6384 1.21412 21.8815 0.374288 20.8548 0.364758C19.6957 0.34689 18.8551 1.15307 18.8046 2.36963V2.36963ZM23.7986 3.52275H24.1767C24.1906 3.78757 24.2811 4.04362 24.4382 4.26273C24.5953 4.48183 24.8129 4.6555 25.0671 4.76463C25.3863 4.90118 25.7338 4.96754 26.0837 4.95878C26.4336 4.95001 26.777 4.86634 27.0882 4.714C27.2578 4.64139 27.3999 4.52104 27.4953 4.36919C27.5906 4.21735 27.6347 4.04133 27.6214 3.86494C27.6312 3.69482 27.5823 3.52631 27.4822 3.38497C27.3822 3.24362 27.2363 3.13715 27.0669 3.08169C26.6508 2.93457 26.2084 2.85357 25.7846 2.72432C25.3435 2.60495 24.9122 2.45504 24.4941 2.27582C23.8111 1.95894 23.7688 0.724813 24.542 0.334084C24.9379 0.121718 25.3835 0.00697034 25.838 0.000311763C26.2926 -0.00634682 26.7416 0.0952953 27.1443 0.295964C27.6437 0.558038 27.9197 1.08725 27.8376 1.6242H27.5133C27.5133 1.60931 27.4839 1.59621 27.4839 1.58102C27.4438 0.598243 26.5747 0.290901 25.6417 0.377266C25.3597 0.407048 25.0925 0.488052 24.8418 0.607773C24.6912 0.673178 24.5656 0.781481 24.4826 0.917695C24.3995 1.05391 24.363 1.2113 24.3782 1.36809C24.3785 1.52499 24.4299 1.67795 24.5254 1.80594C24.6209 1.93392 24.7557 2.03066 24.9114 2.08283C25.3187 2.22489 25.751 2.31602 26.1724 2.4274L27.1906 2.68054C27.4221 2.75275 27.625 2.89003 27.7725 3.07424C27.9201 3.25844 28.0054 3.48089 28.0171 3.71216C28.0986 4.23184 27.8197 4.74259 27.3266 4.97935C26.4362 5.45823 24.9697 5.33166 24.3165 4.72621C23.9822 4.40666 23.7958 3.97275 23.7995 3.52245L23.7986 3.52275ZM32.8152 1.6245H32.4606C32.4606 1.57894 32.4418 1.53516 32.4365 1.50031C32.4308 1.24761 32.3339 1.00444 32.162 0.811577C31.9902 0.61871 31.7538 0.487872 31.4925 0.440998C30.9996 0.306617 30.4738 0.330696 29.9968 0.509495C29.8082 0.560807 29.6421 0.668776 29.5234 0.817257C29.4047 0.965739 29.3398 1.14676 29.3383 1.33324C29.3315 1.51635 29.3915 1.69606 29.5081 1.84198C29.6246 1.9879 29.7906 2.09107 29.978 2.13406L31.599 2.52955C31.7743 2.56952 31.9469 2.61944 32.116 2.67905C32.6329 2.85774 32.9838 3.31399 32.9994 3.83545C33.0072 4.0907 32.9335 4.34221 32.7882 4.55694C32.6428 4.77167 32.4325 4.93958 32.1849 5.03861C31.8086 5.20107 31.4009 5.28702 30.9877 5.29097C30.5745 5.29492 30.1649 5.21678 29.7853 5.06154C29.4732 4.93359 29.2097 4.71779 29.0305 4.44321C28.8513 4.16862 28.7648 3.84843 28.7828 3.52573H29.1293C29.2596 4.12284 29.691 4.62019 30.2829 4.85546C30.8747 5.09073 31.5505 5.03295 32.0887 4.70179C32.2502 4.62196 32.3842 4.49981 32.475 4.34981C32.5657 4.19981 32.6093 4.02824 32.6006 3.85541C32.6087 3.68517 32.5581 3.51709 32.4565 3.37665C32.355 3.23622 32.208 3.13109 32.0379 3.07723C31.6219 2.93011 31.1795 2.85178 30.7556 2.71985C30.3121 2.60232 29.8781 2.45411 29.4573 2.27641C28.7906 1.9646 28.7374 0.740597 29.4974 0.350166C29.8982 0.128887 30.3525 0.0100099 30.816 0.00510424C31.2794 0.000198545 31.7364 0.109431 32.1423 0.322171C32.3744 0.45388 32.5613 0.646917 32.6801 0.877773C32.7989 1.10863 32.8446 1.36735 32.8115 1.62242L32.8152 1.6245ZM9.59061 5.14761C9.45101 5.19779 9.29691 5.19766 9.15741 5.14724C9.0179 5.09682 8.90264 4.99959 8.83338 4.87392L7.45487 3.06174L7.25499 2.8086L5.6553 4.8766C5.5901 4.99687 5.48107 5.09046 5.34858 5.1399C5.21609 5.18933 5.0692 5.19123 4.93535 5.14523L6.99621 2.51704L5.07884 0.142293C5.36331 0.0446111 5.68037 0.150632 5.83858 0.395433L7.26721 2.22995L8.7043 0.402581C8.76998 0.284375 8.87908 0.193241 9.01084 0.146512C9.14261 0.0997833 9.28784 0.10072 9.41892 0.149143L8.67485 1.08755L7.66697 2.33448C7.639 2.35823 7.61662 2.38732 7.6013 2.41986C7.58597 2.4524 7.57805 2.48765 7.57805 2.5233C7.57805 2.55895 7.58597 2.59419 7.6013 2.62673C7.61662 2.65927 7.639 2.68836 7.66697 2.71211L9.58654 5.14761H9.59061ZM18.341 0.11698V0.474353C18.0713 0.45754 17.8009 0.494661 17.5473 0.583321C17.2937 0.67198 17.0624 0.810207 16.8684 0.989081C16.6745 1.16795 16.5221 1.3835 16.4212 1.6218C16.3203 1.86011 16.2731 2.11588 16.2826 2.3726C16.2826 3.20727 16.2826 4.04194 16.2826 4.8766V5.16042H15.9013V0.139315H16.2773V1.16825C16.7385 0.417769 17.4503 0.139315 18.3435 0.119064L18.341 0.11698ZM0.000626696 2.48428L0.168553 1.69598C0.629725 0.137231 2.5095 -0.511403 3.80278 0.454102C4.56002 1.01935 4.74894 1.82016 4.71197 2.72253H0.44582C0.376895 4.33429 1.60032 5.30754 3.16523 4.81079C3.68091 4.6321 4.06909 4.22469 4.19691 3.71841C4.27962 3.46527 4.41622 3.42179 4.66623 3.49506C4.62453 3.80363 4.50978 4.0992 4.33059 4.35953C4.15141 4.61987 3.91247 4.8382 3.63173 4.99811C3.16791 5.23923 2.63576 5.33477 2.11138 5.27106C1.587 5.20736 1.09724 4.98767 0.712121 4.64342C0.331154 4.23631 0.101195 3.72169 0.0563933 3.17818C0.0563933 3.08884 0.0250637 3.00545 0.00313303 2.92504C0.00104439 2.77475 0 2.62783 0 2.48428H0.000626696ZM0.451146 2.37528H4.30907C4.28495 1.20697 3.50923 0.37816 2.47472 0.370417C1.32305 0.355527 0.49908 1.16617 0.448326 2.37022L0.451146 2.37528Z" fill="white"/>
</svg>
