<svg width="32" height="32" viewBox="0 0 32 32" fill="none" xmlns="http://www.w3.org/2000/svg">
<path d="M31.3966 14.5745L17.425 0.60348C16.6209 -0.20116 15.3159 -0.20116 14.5108 0.60348L11.6095 3.50478L15.2899 7.18523C16.1452 6.89622 17.1259 7.0901 17.8077 7.77186C18.4927 8.458 18.6852 9.44714 18.3892 10.3052L21.936 13.8522C22.7942 13.5566 23.7843 13.7478 24.4697 14.4344C25.4275 15.3919 25.4275 16.9438 24.4697 17.9019C23.5115 18.8602 21.9597 18.8602 21.001 17.9019C20.2805 17.1807 20.1025 16.1225 20.4673 15.2349L17.1595 11.9271L17.1592 20.6319C17.3989 20.7504 17.6179 20.907 17.8077 21.0956C18.7655 22.0531 18.7655 23.6052 17.8077 24.5641C16.8495 25.5218 15.2969 25.5218 14.3402 24.5641C13.3823 23.6052 13.3823 22.0533 14.3402 21.0957C14.5697 20.8661 14.8425 20.6842 15.1428 20.5606V11.7747C14.8421 11.6519 14.5691 11.4699 14.3402 11.2396C13.6144 10.5148 13.4399 9.44989 13.8118 8.55875L10.1838 4.93031L0.603751 14.5099C-0.20125 15.3153 -0.20125 16.6204 0.603751 17.4252L14.5755 31.3964C15.3799 32.2012 16.6847 32.2012 17.49 31.3964L31.3964 17.49C32.2012 16.685 32.2012 15.3791 31.3964 14.5745" fill="#DE4C36"/>
</svg>
