<svg width="29" height="32" viewBox="0 0 29 32" fill="none" xmlns="http://www.w3.org/2000/svg">
<path d="M2.63925 28.8011L0 0H29L26.3572 28.7966L14.4824 32L2.63925 28.8011Z" fill="#E44F26"/>
<path d="M14.5 29.552L24.0962 26.9634L26.3537 2.35543H14.5V29.552Z" fill="#F1662A"/>
<path d="M14.5 13.0366H9.69603L9.36481 9.41943H14.5V5.88686H5.39713L5.48404 6.83543L6.37554 16.5691H14.5V13.0366V13.0366Z" fill="#EBEBEB"/>
<path d="M14.5 22.2103L14.4836 22.2149L10.4407 21.1531L10.1823 18.336H6.53763L7.04622 23.8811L14.4836 25.8903L14.5 25.8857V22.2103Z" fill="#EBEBEB"/>
<path d="M14.4871 13.0366V16.5691H18.9575L18.537 21.1509L14.4871 22.2137V25.8891L21.9303 23.8811L21.9843 23.2846L22.8371 13.9851L22.9263 13.0366H14.4871V13.0366Z" fill="white"/>
<path d="M14.4871 5.88686V9.41943H23.2564L23.3292 8.62628L23.4948 6.83543L23.5817 5.88686H14.4871V5.88686Z" fill="white"/>
</svg>
