<svg width="30" height="30" viewBox="0 0 30 30" fill="none" xmlns="http://www.w3.org/2000/svg">
<path d="M0 0H30V30H0V0Z" fill="#F5DE19"/>
<path d="M20.1525 23.4375C20.4081 23.9567 20.8052 24.3931 21.2981 24.6964C21.791 24.9997 22.3595 25.1576 22.9382 25.1518C24.1061 25.1518 24.8529 24.5679 24.8529 23.7589C24.8529 22.7946 24.0857 22.4496 22.8 21.8871L22.095 21.585C20.0593 20.7182 18.7093 19.6329 18.7093 17.3379C18.7093 15.2239 20.3164 13.6136 22.8375 13.6136C23.6536 13.5546 24.469 13.7373 25.182 14.1387C25.895 14.5402 26.474 15.1427 26.8468 15.8711L24.6429 17.28C24.4993 16.9188 24.2494 16.6099 23.9262 16.394C23.603 16.1782 23.2218 16.0657 22.8332 16.0714C22.6637 16.0545 22.4925 16.073 22.3305 16.1258C22.1685 16.1787 22.0193 16.2647 21.8924 16.3784C21.7655 16.4921 21.6637 16.631 21.5934 16.7862C21.5231 16.9415 21.486 17.1096 21.4843 17.28C21.4843 18.1254 22.0082 18.4682 23.2179 18.9943L23.9229 19.2964C26.3186 20.3239 27.6729 21.3707 27.6729 23.7246C27.6729 26.2629 25.6789 27.6536 23.0014 27.6536C21.9582 27.72 20.918 27.4832 20.0064 26.9716C19.0948 26.46 18.3507 25.6955 17.8639 24.7704L20.1525 23.4375ZM10.1936 23.6818C10.6361 24.4671 11.0389 25.1314 12.0075 25.1314C12.9332 25.1314 13.5182 24.7693 13.5182 23.3604V13.7743H16.3371V23.3979C16.3371 26.3164 14.6229 27.645 12.1275 27.645C11.2455 27.6932 10.3695 27.4734 9.61467 27.0144C8.85988 26.5555 8.26163 25.8789 7.89857 25.0736L10.1936 23.6818Z" fill="black"/>
</svg>
