<svg width="14" height="32" viewBox="0 0 14 32" fill="none" xmlns="http://www.w3.org/2000/svg">
<path d="M13.7431 12.74C12.1018 5.3 8.22174 2.85467 7.80491 1.92C7.44132 1.39467 7.11669 0.648 6.85049 0C6.80374 0.66 6.77907 0.913333 6.17136 1.57867C5.23252 2.33333 0.408473 6.488 0.016316 14.9387C-0.34987 22.8213 5.56105 27.5187 6.36354 28.1173L6.45444 28.184C6.62155 29.453 6.76441 30.7252 6.88295 32H7.50755C7.65547 30.6242 7.87656 29.2577 8.1698 27.9067C8.71128 27.512 8.95411 27.2893 9.27355 26.9827C10.7863 25.5457 11.9885 23.7988 12.8025 21.8548C13.6164 19.9109 14.024 17.8132 13.9989 15.6973C14.0119 14.612 13.8652 13.4813 13.7431 12.74V12.74ZM6.81413 23.6667C6.81413 23.6667 6.81413 12.612 7.17123 12.6133C7.44781 12.6133 7.80751 26.8733 7.80751 26.8733C7.31277 26.8133 6.81413 24.5267 6.81413 23.6667Z" fill="#47A248"/>
</svg>
