<svg width="30" height="30" viewBox="0 0 30 30" fill="none" xmlns="http://www.w3.org/2000/svg">
<path d="M14.4106 0.00073C14.1091 -0.00381805 13.8076 0.0128898 13.5085 0.0507288C9.80184 0.436687 6.36995 2.1788 3.87527 4.94079C1.38059 7.70277 0 11.2888 0 15.0066C0 18.7244 1.38059 22.3105 3.87527 25.0724C6.36995 27.8344 9.80184 29.5765 13.5085 29.9625C13.9595 30.0125 15.9392 30.0125 16.3903 29.9625C18.4076 29.7375 20.1242 29.2375 21.8031 28.3875C22.0663 28.25 22.1164 28.2125 22.0788 28.1875L19.6355 24.9126L17.2298 21.6627L14.2227 17.2253C13.2172 15.7356 12.2023 14.2523 11.1779 12.7754C11.1779 12.7754 11.1529 14.7504 11.1529 17.1628C11.1529 21.3877 11.1403 21.5627 11.0902 21.6627C11.0397 21.7765 10.9511 21.8693 10.8396 21.9252C10.7394 21.9752 10.6517 21.9877 10.2131 21.9877H9.68689L9.5616 21.9002C9.4722 21.8505 9.39844 21.7769 9.34859 21.6877L9.29847 21.5502V9.80049L9.39871 9.67549C9.45922 9.6055 9.53125 9.54632 9.61171 9.5005C9.73701 9.438 9.78713 9.438 10.2883 9.438C10.8897 9.438 10.99 9.4505 11.1529 9.6255L14.7865 15.0754C16.7608 18.0636 18.7363 21.051 20.7131 24.0376L23.0937 27.6376L23.219 27.5626C24.2715 26.8626 25.3992 25.8751 26.3013 24.8501C27.7305 23.2197 28.7869 21.2984 29.3971 19.2198C30.0072 17.1411 30.1566 14.9549 29.8347 12.8129C29.3406 9.50562 27.7574 6.45636 25.3346 4.14571C22.9117 1.83505 19.7871 0.394372 16.4529 0.0507288C16.2274 0.0257294 15.0747 0.00073 14.4106 0.00073ZM19.5102 9.02551C19.9487 9.02551 20.0114 9.02551 20.1242 9.07551C20.2494 9.15051 20.3747 9.288 20.4123 9.4255C20.4374 9.5005 20.4499 11.138 20.4374 14.8004V20.0752L19.4977 18.6503L18.5705 17.2253V13.4004C18.5705 10.913 18.5705 9.5255 18.5955 9.463C18.6156 9.38429 18.6515 9.31047 18.7011 9.24601C18.7506 9.18155 18.8127 9.1278 18.8837 9.08801C19.009 9.02551 19.0466 9.02551 19.5102 9.02551V9.02551Z" fill="#FCFCFC"/>
</svg>
