<svg width="27" height="30" viewBox="0 0 27 30" fill="none" xmlns="http://www.w3.org/2000/svg">
<path d="M13.5 30C13.094 30 12.688 29.9 12.3327 29.6876L8.60244 27.526C8.04417 27.2137 8.32331 27.1012 8.50094 27.0387C9.23684 26.7888 9.3891 26.7264 10.1884 26.289C10.2646 26.2391 10.3788 26.2641 10.4676 26.314L13.3224 27.9758C13.4239 28.0383 13.5761 28.0383 13.6649 27.9758L24.8304 21.641C24.8815 21.609 24.9236 21.5647 24.9524 21.5122C24.9813 21.4597 24.9961 21.4008 24.9953 21.3411V8.65889C24.9953 8.53395 24.9319 8.409 24.8304 8.35902L13.6649 2.02416C13.6125 1.99572 13.5536 1.98081 13.4937 1.98081C13.4338 1.98081 13.3748 1.99572 13.3224 2.02416L2.16964 8.35902C2.11845 8.39099 2.07642 8.43533 2.04755 8.48782C2.01868 8.54031 2.00393 8.5992 2.0047 8.65889V21.3411C2.0047 21.4661 2.06814 21.5785 2.18233 21.641L5.22744 23.3778C6.88957 24.1899 7.90461 23.2278 7.90461 22.2532V9.75843C7.90461 9.57101 8.05686 9.43357 8.23449 9.43357H9.64286C9.82049 9.43357 9.97274 9.58351 9.97274 9.75843V22.2532C9.97274 24.4273 8.76739 25.6768 6.67387 25.6768C6.02679 25.6768 5.51927 25.6768 4.09821 24.9896L1.16729 23.3403C0.812901 23.1359 0.518809 22.8439 0.314088 22.4933C0.109366 22.1427 0.00110318 21.7456 0 21.3411V8.6464C0 7.82174 0.444079 7.05956 1.16729 6.64723L12.3327 0.299875C13.0305 -0.0999584 13.9821 -0.0999584 14.6673 0.299875L25.8327 6.64723C26.5559 7.05956 27 7.82174 27 8.6464V21.3286C27 22.1533 26.5559 22.9155 25.8327 23.3278L14.6673 29.6751C14.312 29.8875 13.906 29.9875 13.5 29.9875V30ZM22.5085 17.5052C22.5085 15.1312 20.8717 14.494 17.446 14.0441C13.9821 13.5943 13.6396 13.3569 13.6396 12.5573C13.6396 11.9075 13.9314 11.0204 16.4944 11.0204C18.7782 11.0204 19.6283 11.5077 19.9836 13.0196C20.0089 13.1695 20.1485 13.2695 20.3008 13.2695H21.7472C21.836 13.2695 21.9121 13.2445 21.9756 13.182C22.0074 13.1488 22.0317 13.1094 22.047 13.0664C22.0623 13.0233 22.0682 12.9776 22.0644 12.9321C21.836 10.3082 20.0724 9.08372 16.4944 9.08372C13.3224 9.08372 11.4192 10.4082 11.4192 12.6322C11.4192 15.0312 13.3097 15.6935 16.3675 16.0058C20.0089 16.3432 20.3008 16.8805 20.3008 17.5802C20.3008 18.8047 19.2857 19.3294 16.9384 19.3294C13.9948 19.3294 13.3351 18.6047 13.132 17.1554C13.1198 17.0781 13.0798 17.0078 13.0192 16.9573C12.9586 16.9068 12.8815 16.8795 12.8022 16.8805H11.343C11.3003 16.8804 11.258 16.8889 11.2187 16.9054C11.1793 16.9219 11.1438 16.946 11.1141 16.9763C11.0845 17.0067 11.0614 17.0426 11.0463 17.082C11.0311 17.1213 11.0241 17.1633 11.0258 17.2053C11.0258 19.0546 12.0409 21.2661 16.9258 21.2661C20.4784 21.2661 22.4958 19.8917 22.4958 17.4927L22.5085 17.5052Z" fill="#339933"/>
</svg>
