<svg width="31" height="32" viewBox="0 0 31 32" fill="none" xmlns="http://www.w3.org/2000/svg">
<path d="M28.898 19.5027C25.281 20.2488 25.0323 19.0242 25.0323 19.0242C28.8511 13.3576 30.4476 6.16461 29.07 4.40416C25.3115 -0.398005 18.8054 1.87313 18.6968 1.93199L18.6619 1.93831C17.9473 1.78994 17.1476 1.70164 16.2488 1.68693C14.6122 1.66017 13.3707 2.116 12.4287 2.8304C12.4287 2.8304 0.822482 -1.95097 1.36235 8.84377C1.47716 11.1402 4.65387 26.22 8.44282 21.6652C9.82771 19.9996 11.1659 18.5914 11.1659 18.5914C11.8304 19.0328 12.6261 19.2581 13.4601 19.1772L13.525 19.1222C13.5048 19.329 13.514 19.5312 13.5509 19.7707C12.5747 20.8613 12.8616 21.0527 10.9104 21.4544C8.93587 21.8614 10.0958 22.5857 10.8531 22.7752C11.7712 23.0047 13.8952 23.3299 15.3303 21.3209L15.2731 21.5501C15.6555 21.8565 15.924 23.5426 15.879 25.0713C15.834 26.5998 15.804 27.6493 16.1052 28.469C16.4067 29.2887 16.707 31.1331 19.2722 30.5835C21.4155 30.1241 22.5263 28.9338 22.6809 26.9482C22.7904 25.5367 23.0387 25.7454 23.0542 24.4834L23.2533 23.886C23.4828 21.9725 23.2898 21.3552 24.6102 21.6423L24.9313 21.6705C25.9031 21.7147 27.1752 21.5141 27.9218 21.1672C29.5294 20.4211 30.4829 19.1754 28.8977 19.5027H28.898Z" fill="#336791"/>
<path d="M13.108 9.87074C12.7821 9.82537 12.4869 9.86733 12.3376 9.98044C12.2537 10.044 12.2276 10.1177 12.2206 10.1685C12.2018 10.3029 12.296 10.4515 12.3539 10.5281C12.5176 10.7451 12.7567 10.8942 12.9934 10.927C13.0276 10.9319 13.0618 10.9341 13.0958 10.9341C13.4904 10.9341 13.8493 10.6267 13.8809 10.3999C13.9205 10.1158 13.508 9.92644 13.108 9.87086" fill="white"/>
<path d="M23.9059 9.87974C23.8748 9.65705 23.4786 9.59357 23.1025 9.64586C22.727 9.69816 22.3628 9.8677 22.3932 10.0909C22.4176 10.2644 22.731 10.5607 23.1019 10.5607C23.1333 10.5607 23.1649 10.5586 23.1968 10.5541C23.4444 10.5198 23.6261 10.3626 23.7124 10.272C23.8438 10.1338 23.9199 9.97983 23.9059 9.87974Z" fill="white"/>
<path d="M30.1015 19.4179C29.9636 19.0009 29.5197 18.8667 28.7822 19.019C26.5924 19.4709 25.8082 19.1579 25.5507 18.9683C27.2528 16.3753 28.653 13.2409 29.4084 10.3166C29.7662 8.93134 29.9638 7.64485 29.98 6.59624C29.9979 5.44535 29.8018 4.59961 29.3976 4.08297C27.7676 2.00023 25.3754 0.883025 22.4796 0.852376C20.4888 0.829998 18.8068 1.33946 18.4807 1.48273C17.7941 1.31198 17.0455 1.20714 16.2305 1.19376C14.7361 1.16956 13.4442 1.52737 12.3747 2.25672C11.9101 2.08378 10.7095 1.67161 9.24114 1.43506C6.70269 1.02641 4.6855 1.33606 3.24601 2.35584C1.52837 3.57277 0.735409 5.74806 0.889015 8.82116C0.940703 9.85505 1.52983 13.0357 2.45949 16.0816C3.68323 20.0907 5.01351 22.3603 6.41311 22.8272C6.57694 22.8818 6.76581 22.9199 6.97415 22.9199C7.48471 22.9199 8.11068 22.6898 8.76196 21.9069C9.55633 20.9539 10.378 20.0241 11.2261 19.1186C11.7763 19.4139 12.3808 19.5788 12.999 19.5953C13.0002 19.6115 13.0018 19.6277 13.0032 19.6437C12.8968 19.7706 12.7926 19.8994 12.6906 20.0299C12.2623 20.5737 12.1732 20.6869 10.7943 20.9707C10.4021 21.0517 9.36045 21.2664 9.34513 21.9966C9.32859 22.7944 10.5765 23.1295 10.7187 23.165C11.2142 23.2891 11.6915 23.3502 12.1468 23.3502C13.2539 23.3502 14.2282 22.9863 15.0068 22.2823C14.9828 25.1265 15.1014 27.9291 15.4429 28.783C15.7226 29.4821 16.4059 31.1905 18.5642 31.1903C18.8809 31.1903 19.2294 31.1535 19.6129 31.0713C21.8654 30.5884 22.8436 29.5929 23.222 27.398C23.4245 26.225 23.7719 23.4239 23.9354 21.9214C24.2803 22.0291 24.7243 22.0783 25.2044 22.0782C26.2055 22.0782 27.3608 21.8655 28.0853 21.5292C28.8992 21.1512 30.3679 20.2238 30.1015 19.4179ZM24.7373 9.26507C24.7299 9.70862 24.6689 10.1113 24.6042 10.5316C24.5345 10.9837 24.4625 11.4511 24.4444 12.0184C24.4265 12.5706 24.4954 13.1446 24.5621 13.6998C24.6968 14.8212 24.8351 15.9756 24.2999 17.1147C24.211 16.9571 24.1318 16.7943 24.0627 16.6271C23.9962 16.4658 23.8517 16.2068 23.6516 15.8482C22.8734 14.4525 21.0509 11.1841 21.9839 9.85043C22.2618 9.45346 22.967 9.0453 24.7373 9.26507ZM22.5915 1.75054C25.1861 1.80782 27.2386 2.77847 28.6917 4.63536C29.8062 6.05966 28.579 12.5404 25.0261 18.1314C24.9903 18.086 24.9544 18.0407 24.9183 17.9956L24.8733 17.9394C25.7914 16.4231 25.6119 14.9229 25.4521 13.5929C25.3864 13.0471 25.3244 12.5315 25.3402 12.0472C25.3565 11.534 25.4244 11.0937 25.49 10.6681C25.5707 10.1435 25.6528 9.60074 25.6302 8.9609C25.6471 8.89376 25.6539 8.81447 25.645 8.72033C25.5872 8.10676 24.8867 6.27042 23.4589 4.60836C22.6778 3.69926 21.5389 2.6819 19.9837 1.99573C20.6526 1.85708 21.5673 1.7278 22.5915 1.75054ZM8.07274 21.3338C7.35518 22.1966 6.8597 22.0311 6.69673 21.9769C5.63499 21.6227 4.40298 19.3786 3.31679 15.82C2.37691 12.7408 1.82768 9.64452 1.78414 8.77628C1.64695 6.03034 2.31258 4.11666 3.76265 3.08824C6.12256 1.41475 10.0025 2.41641 11.5615 2.92442C11.5392 2.94655 11.5158 2.96723 11.4937 2.98972C8.93527 5.57342 8.99596 9.98773 9.00228 10.2576C9.00204 10.3617 9.01079 10.5091 9.02271 10.7119C9.06674 11.4543 9.14871 12.8362 8.92979 14.4011C8.72645 15.8553 9.17474 17.2786 10.1595 18.3062C10.2606 18.4114 10.3668 18.5116 10.4778 18.6063C10.0395 19.0758 9.08681 20.1139 8.07274 21.3338ZM10.8066 17.686C10.0129 16.8578 9.65246 15.7058 9.8175 14.5251C10.0486 12.8721 9.96332 11.4323 9.91747 10.6588C9.91102 10.5506 9.90531 10.4557 9.90202 10.3809C10.2758 10.0495 12.0078 9.12156 13.2429 9.40457C13.8065 9.53361 14.15 9.91744 14.2927 10.5776C15.0317 13.9955 14.3905 15.42 13.8753 16.5648C13.7692 16.8006 13.6688 17.0236 13.5832 17.2542L13.5168 17.4325C13.3487 17.8832 13.1923 18.3023 13.0954 18.7002C12.2516 18.6978 11.4308 18.3373 10.8066 17.6859V17.686ZM10.9362 22.2954C10.6898 22.2339 10.4682 22.127 10.3382 22.0383C10.4468 21.9872 10.64 21.9177 10.9752 21.8486C12.5972 21.5147 12.8478 21.279 13.3948 20.5845C13.5202 20.4252 13.6624 20.2447 13.8593 20.0248L13.8595 20.0245C14.1528 19.6962 14.2869 19.7519 14.5301 19.8528C14.7273 19.9343 14.9193 20.1814 14.9972 20.4534C15.034 20.5818 15.0754 20.8255 14.94 21.0153C13.7973 22.6153 12.132 22.5947 10.9362 22.2954ZM19.4251 30.1949C17.4408 30.6201 16.7382 29.6076 16.2752 28.4501C15.9763 27.7029 15.8294 24.3333 15.9336 20.6121C15.935 20.5626 15.9279 20.5148 15.9143 20.4698C15.9021 20.3809 15.8836 20.2931 15.8588 20.2068C15.7039 19.6654 15.3263 19.2125 14.8732 19.0247C14.6932 18.9501 14.3629 18.8133 13.966 18.9149C14.0506 18.5661 14.1974 18.1721 14.3566 17.7456L14.4234 17.5662C14.4985 17.364 14.5929 17.1544 14.6926 16.9326C15.2318 15.7349 15.9701 14.0944 15.1688 10.3882C14.8686 9.00006 13.8662 8.32215 12.3467 8.47965C11.4358 8.5739 10.6023 8.94144 10.1866 9.15221C10.0972 9.19745 10.0155 9.24123 9.93912 9.2838C10.0551 7.88517 10.4935 5.27131 12.1331 3.61753C13.1656 2.57646 14.5405 2.06225 16.2157 2.08998C19.5164 2.14398 21.6331 3.8379 22.8277 5.24954C23.8571 6.46587 24.4144 7.69119 24.6369 8.35207C22.964 8.18192 21.8263 8.51212 21.2495 9.3367C19.9948 11.1304 21.9359 14.6116 22.8689 16.2847C23.04 16.5913 23.1877 16.8563 23.2341 16.969C23.5379 17.7052 23.9312 18.1968 24.2184 18.5556C24.3064 18.6656 24.3918 18.7722 24.4568 18.8654C23.9501 19.0114 23.04 19.3489 23.123 21.0359C23.0561 21.8824 22.5804 25.8455 22.3388 27.2457C22.0197 29.0956 21.339 29.7845 19.4251 30.195V30.1949ZM27.7079 20.7163C27.1898 20.9568 26.3228 21.1371 25.4992 21.1759C24.5895 21.2185 24.1263 21.074 24.0174 20.9851C23.9663 19.9338 24.3575 19.824 24.7716 19.7077C24.8367 19.6895 24.9002 19.6716 24.9615 19.6502C24.9996 19.6812 25.0413 19.712 25.087 19.7421C25.8182 20.2247 27.1223 20.2768 28.9635 19.8967L28.9837 19.8927C28.7354 20.1249 28.3104 20.4365 27.7079 20.7163Z" fill="white"/>
</svg>
