<svg width="20" height="34" viewBox="0 0 20 34" fill="none" xmlns="http://www.w3.org/2000/svg">
<path fill-rule="evenodd" clip-rule="evenodd" d="M1.33514e-05 32.0093V2.96805C1.33514e-05 1.86857 0.951149 0.977295 2.12447 0.977295H17.8755C19.0489 0.977295 20 1.86857 20 2.96805V32.0093C20 33.1087 19.0489 34 17.8755 34H2.12447C0.951149 34 1.33514e-05 33.1087 1.33514e-05 32.0093ZM1.46931 28.0192V3.82818C1.46931 3.27844 1.94487 2.8328 2.53153 2.8328H17.4684C18.055 2.8328 18.5306 3.27844 18.5306 3.82818V28.0192C18.5306 28.569 18.055 29.0146 17.4684 29.0146H2.53153C1.94487 29.0146 1.46931 28.569 1.46931 28.0192Z" fill="#545657"/>
<path d="M11.5282 32.2247H8.47183C7.94382 32.2247 7.51583 31.8237 7.51583 31.3289V31.2961C7.51583 30.8013 7.94382 30.4003 8.47183 30.4003H11.5282C12.0563 30.4003 12.4843 30.8013 12.4843 31.2961V31.3289C12.4843 31.8237 12.0563 32.2247 11.5282 32.2247Z" fill="#8F9799"/>
<path d="M10.0903 16.1428C9.36654 16.1428 8.77984 15.5561 8.77984 14.8324C8.77984 14.1087 9.36654 13.522 10.0903 13.522C10.814 13.522 11.4007 14.1087 11.4007 14.8324C11.4007 15.5561 10.814 16.1428 10.0903 16.1428Z" fill="#00D8FF"/>
<path d="M10.0903 17.837C11.6653 17.8751 13.2364 17.6627 14.7449 17.2079C15.4417 16.9871 16.0916 16.6391 16.6618 16.1816C16.8794 16.0253 17.0605 15.8238 17.1929 15.591C17.3253 15.3581 17.4057 15.0993 17.4286 14.8324C17.4286 13.966 16.4768 13.1168 14.8822 12.5612C13.3334 12.0689 11.7152 11.8302 10.0903 11.8546C8.48698 11.8322 6.89045 12.0665 5.3612 12.5486C4.69011 12.7625 4.06224 13.0937 3.50669 13.5267C3.29284 13.6757 3.11437 13.8699 2.98393 14.0955C2.85349 14.3212 2.77427 14.5727 2.75188 14.8324C2.75188 15.7329 3.81595 16.6455 5.52998 17.2127C7.00923 17.6526 8.5472 17.8632 10.0903 17.837V17.837ZM10.0903 12.4815C11.6449 12.4607 13.1929 12.6876 14.6762 13.1535C16.1439 13.6656 16.8017 14.3659 16.8017 14.8308C16.8017 15.3173 16.0946 16.082 14.542 16.613C13.099 17.0459 11.5964 17.2474 10.0903 17.21C8.61399 17.2364 7.14237 17.0367 5.72655 16.6177C4.11472 16.0836 3.38089 15.3178 3.38089 14.8324C3.40733 14.6658 3.46803 14.5066 3.55916 14.3647C3.65028 14.2227 3.76984 14.1013 3.9103 14.0079C4.40734 13.6237 4.96823 13.3303 5.5672 13.1409C7.03014 12.6816 8.55708 12.459 10.0903 12.4815V12.4815Z" fill="#00D8FF"/>
<path d="M13.0676 21.3683C13.3121 21.3739 13.5537 21.3146 13.7679 21.1964C14.5185 20.7634 14.7785 19.5148 14.4634 17.8558C14.1161 16.2682 13.5143 14.7471 12.6813 13.3516C11.8999 11.9516 10.8995 10.6856 9.71812 9.60171C9.19754 9.12718 8.59699 8.74864 7.94433 8.48365C7.70826 8.37302 7.45075 8.31567 7.19005 8.31567C6.92934 8.31567 6.67183 8.37302 6.43576 8.48365C5.65527 8.93339 5.39686 10.3109 5.76116 12.0789C6.11922 13.5805 6.70542 15.0182 7.49931 16.342C8.2532 17.7255 9.22206 18.9804 10.3697 20.06C10.9091 20.5531 11.5352 20.9421 12.2163 21.2074C12.489 21.3086 12.7768 21.363 13.0676 21.3683V21.3683ZM12.1382 13.663C12.9328 14.9993 13.5096 16.4535 13.847 17.9711C14.1369 19.4991 13.8585 20.418 13.4539 20.6517C13.0345 20.8944 12.0166 20.6643 10.7806 19.5845C9.68508 18.5503 8.76034 17.3491 8.04077 16.0254C7.28024 14.7598 6.71793 13.3852 6.37339 11.9495C6.03058 10.2852 6.32674 9.26624 6.74712 9.02407C6.90468 8.9637 7.07305 8.93668 7.24159 8.94471C7.41013 8.95274 7.57517 8.99565 7.72627 9.07072C8.30722 9.31045 8.84132 9.65079 9.30403 10.0761C10.4327 11.1144 11.3883 12.3263 12.1345 13.6661L12.1382 13.663Z" fill="#00D8FF"/>
<path d="M7.11455 21.375C7.82481 21.375 8.7269 20.9452 9.66622 20.1374C10.8683 19.0436 11.8856 17.7626 12.6786 16.344C13.5012 14.9677 14.0983 13.4687 14.4472 11.9038C14.5985 11.2153 14.6265 10.5054 14.53 9.80708C14.5077 9.54804 14.4288 9.29705 14.2989 9.07181C14.169 8.84657 13.9913 8.65256 13.7783 8.50347C12.9989 8.05216 11.6764 8.51605 10.3267 9.7143C9.20464 10.7743 8.2518 12.0001 7.50139 13.3489C6.67934 14.6931 6.07601 16.1593 5.71397 17.6927C5.55613 18.4065 5.53179 19.1433 5.64216 19.8659C5.66842 20.1324 5.752 20.3901 5.88717 20.6212C6.02234 20.8524 6.2059 21.0516 6.42527 21.2052C6.6359 21.3219 6.8738 21.3805 7.11455 21.375V21.375ZM12.1361 16.0285C11.3753 17.3842 10.4036 18.6102 9.25736 19.6604C8.0785 20.6747 7.14338 20.8928 6.74135 20.6564C6.32201 20.4126 6.01275 19.4177 6.33144 17.808C6.68061 16.344 7.25929 14.9444 8.04601 13.6613C8.76211 12.3703 9.67159 11.1966 10.7429 10.1808C12.0135 9.0528 13.044 8.80067 13.4638 9.04389C13.5947 9.15023 13.7021 9.28256 13.7792 9.4325C13.8564 9.58245 13.9016 9.74676 13.912 9.91506C13.9953 10.5378 13.9682 11.1704 13.8318 11.7837C13.4962 13.2803 12.9235 14.7136 12.1356 16.0295L12.1361 16.0285Z" fill="#00D8FF"/>
</svg>
