<svg width="32" height="28" viewBox="0 0 32 28" fill="none" xmlns="http://www.w3.org/2000/svg">
<path d="M18.9333 14C18.9333 14.7634 18.6243 15.4956 18.0742 16.0354C17.5241 16.5752 16.778 16.8785 16 16.8785C15.222 16.8785 14.4759 16.5752 13.9258 16.0354C13.3757 15.4956 13.0667 14.7634 13.0667 14C13.0667 13.2366 13.3757 12.5044 13.9258 11.9646C14.4759 11.4248 15.222 11.1215 16 11.1215C16.778 11.1215 17.5241 11.4248 18.0742 11.9646C18.6243 12.5044 18.9333 13.2366 18.9333 14ZM22.6667 0C20.8 0 18.5333 1.30841 16 3.40187C13.7333 1.30841 11.3333 0 9.6 0C9.06667 0 8.53333 0.130841 8.13333 0.392523C6.13333 1.43925 5.73333 4.84112 6.66667 8.76635C2.66667 10.0748 0 11.9065 0 14C0 16.0935 2.66667 18.0561 6.66667 19.2336C5.73333 23.2897 6.26667 26.5607 8 27.6075C8.53333 27.8692 8.93333 28 9.46667 28C11.3333 28 13.6 26.6916 16.1333 24.5981C18.4 26.6916 20.8 28 22.5333 28C23.0667 28 23.6 27.8692 24 27.6075C25.8667 26.5607 26.2667 23.2897 25.3333 19.2336C29.3333 18.0561 32 16.0935 32 14C32 11.9065 29.3333 10.0748 25.3333 8.76635C26.2667 4.71028 25.7333 1.43925 24 0.392523C23.6 0.130841 23.0667 0 22.5333 0H22.6667ZM22.6667 1.43925L23.3333 1.57009C24.2667 2.09346 24.6667 4.05607 24.4 6.41121L24 8.37383C22.6667 7.98131 21.3333 7.85047 19.8667 7.58878L17.2 4.4486C19.3333 2.48598 21.2 1.43925 22.5333 1.43925H22.6667ZM9.33333 1.43925C10.6667 1.43925 12.6667 2.48598 14.8 4.4486C13.8396 5.43481 12.9487 6.48396 12.1333 7.58878C10.6667 7.85047 9.33333 7.98131 8 8.37383L7.6 6.54206C7.33333 4.05607 7.6 2.09346 8.53333 1.70093L9.33333 1.43925ZM15.8667 5.36449L17.7333 7.45794C16.534 7.40421 15.3327 7.40421 14.1333 7.45794L16 5.49533L15.8667 5.36449ZM15.8667 8.8972H18.8C19.9233 10.5135 20.9046 12.2206 21.7333 14C20.8937 15.7322 19.9127 17.3949 18.8 18.972C16.8481 19.1372 14.8853 19.1372 12.9333 18.972C11.8635 17.3923 10.927 15.7294 10.1333 14C10.9618 12.2621 11.9433 10.5984 13.0667 9.02804L16 8.8972H15.8667ZM11.0667 9.28972C10.4363 10.2628 9.85773 11.2672 9.33333 12.2991C9.06667 11.3832 8.66667 10.5981 8.53333 9.68224L11.2 9.28972H11.0667ZM20.6667 9.28972C21.6 9.28972 22.5333 9.5514 23.3333 9.68224C23.2 10.5981 22.8 11.3832 22.5333 12.2991C21.9715 11.261 21.3482 10.2562 20.6667 9.28972ZM24.6667 10.0748L26.6667 10.729C28.9333 11.7757 30.4 12.9533 30.4 14C30.4 15.0467 28.9333 16.2243 26.6667 17.271L24.8 17.9252C24.4 16.6168 24 15.3084 23.3333 14C24 12.6916 24.4 11.3832 24.6667 10.0748ZM7.2 10.0748L8.53333 14L7.2 17.9252L5.33333 17.271C3.06667 16.2243 1.6 15.0467 1.6 14C1.6 12.9533 3.06667 11.7757 5.33333 10.729L7.06667 10.0748H7.2ZM22.6667 15.7009C22.9333 16.6168 23.3333 17.4019 23.4667 18.3178L20.8 18.8411C21.4792 17.8281 22.1024 16.7798 22.6667 15.7009ZM9.33333 15.7009C9.88963 16.7841 10.513 17.8328 11.2 18.8411C10.3033 18.7072 9.4135 18.5326 8.53333 18.3178C8.66667 17.4019 9.06667 16.6168 9.33333 15.7009ZM24 19.6262L24.2667 21.4579C24.5333 24.0748 24.2667 25.9065 23.3333 26.4299C23.073 26.5103 22.7937 26.5103 22.5333 26.4299C21.2 26.4299 19.2 25.514 17.0667 23.5514C18.0271 22.5652 18.918 21.516 19.7333 20.4112C21.2 20.1495 22.6667 20.0187 23.8667 19.6262H24ZM8 19.6262C9.33333 20.0187 10.8 20.1495 12.2667 20.4112L14.9333 23.5514C12.8 25.514 10.9333 26.5607 9.6 26.5607L8.8 26.4299C7.86667 25.9065 7.46667 23.9439 7.73333 21.5888L8.13333 19.6262H8ZM14.2667 20.5421C15.466 20.5958 16.6673 20.5958 17.8667 20.5421L16 22.5047L14.2667 20.5421Z" fill="#61DAFB"/>
</svg>
