<svg width="33" height="31" viewBox="0 0 33 31" fill="none" xmlns="http://www.w3.org/2000/svg">
<path d="M22.8655 21.6502C24.0833 21.5254 25.0072 20.4866 24.9651 19.2399C24.9232 17.9933 23.8733 16.996 22.6135 16.996H22.5296C21.2276 17.0375 20.2198 18.1179 20.2619 19.4061C20.3039 20.0294 20.5558 20.5696 20.9337 20.9436C19.506 23.7279 17.3223 25.764 14.0468 27.4678C11.8211 28.6313 9.51147 29.0469 7.20186 28.7561C5.3121 28.5067 3.84231 27.6757 2.91831 26.3042C1.57459 24.2681 1.44865 22.0656 2.58251 19.8632C3.38044 18.2841 4.64011 17.1206 5.43804 16.5388C5.27007 15.9986 5.01806 15.0844 4.89212 14.4196C-1.19702 18.7829 -0.56706 24.6836 1.28068 27.4678C2.66642 29.5456 5.48006 30.8338 8.5876 30.8338C9.42743 30.8338 10.2673 30.7506 11.1072 30.543C16.4825 29.504 20.5559 26.3458 22.8655 21.6502V21.6502ZM30.2565 16.4973C27.0649 12.7989 22.3616 10.7628 16.9864 10.7628H16.3145C15.9365 10.0148 15.1386 9.51605 14.2568 9.51605H14.1727C12.871 9.55763 11.8632 10.638 11.9051 11.9263C11.9472 13.1729 12.997 14.1702 14.2568 14.1702H14.3407C15.2646 14.1287 16.0625 13.5469 16.3984 12.7573H17.1543C20.3459 12.7573 23.3694 13.6715 26.0991 15.4584C28.1988 16.8298 29.7106 18.6167 30.5504 20.7774C31.2643 22.5228 31.2222 24.2265 30.4663 25.681C29.2906 27.8833 27.3169 29.0885 24.7133 29.0885C23.0335 29.0885 21.4377 28.5897 20.5978 28.2157C20.1359 28.6313 19.296 29.2961 18.708 29.7118C20.5139 30.5428 22.3616 31 24.1253 31C28.1567 31 31.1383 28.7975 32.2722 26.5952C33.49 24.1849 33.4059 20.0294 30.2565 16.4973V16.4973ZM8.92353 22.3564C8.96556 23.6031 10.0154 24.6004 11.2752 24.6004H11.3592C12.661 24.5589 13.6688 23.4784 13.6268 22.1902C13.5849 20.9435 12.535 19.9463 11.2752 19.9463H11.1913C11.1072 19.9463 10.9811 19.9463 10.8973 19.9877C9.17554 17.162 8.46166 14.0871 8.71367 10.7626C8.88151 8.26934 9.72146 6.10844 11.1913 4.32154C12.409 2.784 14.7607 2.03602 16.3565 1.99456C20.8078 1.9114 22.6974 7.39661 22.8235 9.59909C23.3694 9.72371 24.2933 10.0147 24.9232 10.2224C24.4192 3.49065 20.2198 0 16.1886 0C12.409 0 8.92353 2.70109 7.53766 6.69034C5.606 12.0094 6.8658 17.1206 9.21744 21.1514C9.00758 21.4422 8.88151 21.8994 8.92353 22.3565V22.3564Z" fill="#764ABC"/>
</svg>
