<svg width="30" height="30" viewBox="0 0 30 30" fill="none" xmlns="http://www.w3.org/2000/svg">
<path d="M15 0C18.9782 0 22.7936 1.58035 25.6066 4.3934C28.4196 7.20644 30 11.0218 30 15C30 18.9782 28.4196 22.7936 25.6066 25.6066C22.7936 28.4196 18.9782 30 15 30C11.0218 30 7.20644 28.4196 4.3934 25.6066C1.58035 22.7936 0 18.9782 0 15C0 11.0218 1.58035 7.20644 4.3934 4.3934C7.20644 1.58035 11.0218 0 15 0V0ZM12.025 20C12.2375 20.8 12.2125 21.5625 11.9875 22.2375L11.9125 22.4625L11.8125 22.6875C11.6375 23.05 11.4 23.3875 11.1125 23.6875C10.2375 24.6375 9.025 25 8.5 24.7C7.9375 24.375 8.225 23.0375 9.2375 21.9625C10.325 20.8125 11.8875 20.0875 11.8875 20.0875V20.075L12.0125 20H12.025ZM24.4 6.425C23.7375 3.75 19.325 2.875 15.125 4.3625C12.6375 5.2375 9.95 6.6375 8.0125 8.45C5.7125 10.6 5.35 12.475 5.5 13.25C6.025 16 9.8125 17.8125 11.375 19.1625C10.9125 19.3875 7.55 21.075 6.7625 22.825C5.925 24.6625 6.8875 25.975 7.5375 26.1375C8.49285 26.3598 9.49359 26.2808 10.4023 25.9116C11.311 25.5423 12.0831 24.9007 12.6125 24.075C13.6625 22.5 13.575 20.475 13.1125 19.4875C13.7375 19.3125 14.475 19.2375 15.4125 19.3625C18.0375 19.65 18.5625 21.3 18.45 21.9875C18.325 22.65 17.7875 23.05 17.6 23.1625C17.4125 23.275 17.35 23.3125 17.375 23.3875C17.4 23.5 17.5 23.5 17.6375 23.475C17.85 23.4375 19.0125 22.9125 19.0625 21.6375C19.125 20.025 17.5875 18.225 14.85 18.2625C13.725 18.2875 13.0125 18.3875 12.5 18.5875C12.467 18.538 12.4245 18.4955 12.375 18.4625C10.6875 16.6375 7.55 15.3625 7.6875 12.9375C7.725 12.0625 8.0375 9.7375 13.6875 6.925C18.3125 4.6125 22.0125 5.2625 22.65 6.6625C23.5625 8.6625 20.675 12.4 15.8625 12.9375C14.025 13.15 13.0625 12.4375 12.825 12.175C12.5625 11.8875 12.525 11.875 12.425 11.925C12.275 12 12.375 12.25 12.425 12.4C12.575 12.775 13.1625 13.425 14.175 13.775C15.05 14.05 17.2125 14.2125 19.8 13.2125C22.7 12.0875 24.975 8.95 24.3125 6.325L24.4125 6.4125L24.4 6.425Z" fill="#CC6699"/>
</svg>
