<svg width="44" height="27" viewBox="0 0 44 27" fill="none" xmlns="http://www.w3.org/2000/svg">
<path d="M22 0C16.1334 0 12.4666 3.00006 11 9C13.2 5.99994 15.7666 4.87494 18.7 5.625C20.3735 6.05285 21.5698 7.29475 22.8939 8.66918C25.051 10.9085 27.5473 13.5 33 13.5C38.8666 13.5 42.5334 10.4999 44 4.5C41.8 7.50006 39.2334 8.62506 36.3 7.875C34.6265 7.44715 33.4302 6.20525 32.1061 4.83082C29.949 2.59154 27.4527 0 22 0ZM11 13.5C5.13339 13.5 1.46661 16.5001 0 22.5C2.2 19.4999 4.76661 18.3749 7.7 19.125C9.37355 19.5529 10.5698 20.7947 11.8939 22.1692C14.051 24.4085 16.5473 27 22 27C27.8666 27 31.5334 23.9999 33 18C30.8 21.0001 28.2334 22.1251 25.3 21.375C23.6265 20.9471 22.4302 19.7053 21.1061 18.3308C18.949 16.0915 16.4527 13.5 11 13.5Z" fill="url(#paint0_linear_2_23)"/>
<defs>
<linearGradient id="paint0_linear_2_23" x1="-1.22232" y1="8.64" x2="37.2002" y2="30.3014" gradientUnits="userSpaceOnUse">
<stop stop-color="#2298BD"/>
<stop offset="1" stop-color="#0ED7B5"/>
</linearGradient>
</defs>
</svg>
