<svg width="30" height="30" viewBox="0 0 30 30" fill="none" xmlns="http://www.w3.org/2000/svg">
<path d="M1.36929 0.123967C0.622407 0.123967 0 0.743802 0 1.4876V28.6364C0 29.3802 0.622407 30 1.36929 30H28.6307C29.3776 30 30 29.3802 30 28.6364V1.36364C30 0.619835 29.3776 0 28.6307 0L1.36929 0.123967ZM23.029 12.2727H24.8963C25.4518 12.3803 25.9943 12.5465 26.5145 12.7686V15.8678C26.2811 15.6804 26.0311 15.5145 25.7676 15.3719C25.4871 15.2261 25.1958 15.1017 24.8963 15C24.2883 14.8321 23.6599 14.7486 23.029 14.7521L22.0332 14.876C21.7658 14.9593 21.5137 15.0849 21.2863 15.2479C21.0373 15.2479 20.9129 15.4959 20.7884 15.6198C20.6878 15.8102 20.6445 16.0254 20.6639 16.2397L20.7884 16.9835L21.4108 17.4793L22.2822 17.9752L23.4025 18.4711C24.0249 18.719 24.5228 18.9669 24.8963 19.3388L26.1411 20.2066C26.5145 20.5785 26.7635 20.9504 26.888 21.4463C27.1369 21.8182 27.1369 22.314 27.1369 22.9339C27.1369 23.8017 27.1369 24.4215 26.7635 25.0413C26.4537 25.5474 26.0269 25.9725 25.5187 26.281C24.957 26.6853 24.3234 26.9797 23.6515 27.1488L21.4108 27.2727C20.6202 27.3064 19.8283 27.2648 19.0456 27.1488C18.3965 27.0328 17.7676 26.824 17.1784 26.5289V23.3058C18.3221 24.2799 19.7815 24.8084 21.2863 24.7934L22.2822 24.6694L23.1535 24.2975L23.527 23.8017C23.6362 23.6132 23.6937 23.3994 23.6937 23.1818C23.6937 22.9642 23.6362 22.7504 23.527 22.562C23.3314 22.266 23.0773 22.0129 22.7801 21.8182C22.4619 21.6267 22.1289 21.4609 21.7842 21.3223C21.3726 21.149 20.9575 20.9837 20.5394 20.8264C19.2946 20.3306 18.5477 19.7107 18.0498 19.0909C17.4662 18.3975 17.1564 17.5161 17.1784 16.6116C17.1784 15.7438 17.3029 15.124 17.5519 14.6281C17.9253 14.0083 18.2988 13.6364 18.7967 13.2645C19.3689 12.9064 20.0015 12.6544 20.6639 12.5207C21.398 12.3482 22.1504 12.2649 22.9046 12.2727H23.029ZM4.23237 12.3967H16.0581V15.124H11.8257V27.1488H8.46473V15H4.23237V12.3967Z" fill="#3178C6"/>
</svg>
